<?xml version="1.0" encoding="UTF-8"?>
<svg version="1.1" xmlns="http://www.w3.org/2000/svg" width="1966" height="1966">
<path d="M0,0 L2,0 L1,7 L-13,44 L-29,82 L-42,111 L-55,139 L-74,178 L-84,197 L-100,227 L-113,250 L-128,276 L-145,304 L-160,328 L-173,348 L-197,384 L-213,407 L-225,424 L-239,443 L-253,462 L-263,475 L-273,488 L-284,502 L-297,518 L-308,532 L-320,546 L-329,557 L-341,571 L-353,585 L-362,595 L-369,603 L-378,613 L-387,623 L-398,635 L-410,648 L-425,664 L-436,676 L-447,688 L-456,698 L-465,708 L-474,718 L-483,728 L-492,739 L-505,753 L-514,764 L-524,775 L-533,786 L-542,796 L-551,807 L-564,822 L-573,833 L-584,846 L-593,857 L-602,868 L-611,879 L-624,895 L-635,909 L-648,925 L-661,942 L-674,958 L-683,970 L-697,988 L-709,1004 L-725,1025 L-739,1044 L-753,1063 L-767,1082 L-780,1100 L-792,1117 L-805,1135 L-817,1152 L-830,1170 L-842,1187 L-854,1204 L-867,1222 L-879,1239 L-892,1257 L-904,1274 L-917,1292 L-929,1309 L-942,1327 L-955,1346 L-967,1362 L-980,1381 L-992,1397 L-1005,1416 L-1017,1432 L-1030,1451 L-1043,1469 L-1056,1487 L-1068,1504 L-1081,1522 L-1093,1539 L-1106,1557 L-1120,1577 L-1122,1580 L-1125,1580 L-1123,1575 L-1108,1551 L-1096,1532 L-1081,1508 L-1067,1485 L-1054,1464 L-1035,1432 L-1018,1404 L-1001,1375 L-987,1351 L-972,1325 L-956,1297 L-942,1272 L-931,1253 L-928,1253 L-926,1247 L-916,1229 L-903,1205 L-888,1177 L-874,1150 L-864,1131 L-853,1109 L-843,1090 L-831,1065 L-814,1030 L-799,997 L-786,968 L-770,930 L-755,892 L-742,856 L-727,810 L-720,786 L-716,770 L-713,755 L-711,744 L-708,726 L-707,712 L-706,674 L-708,674 L-711,656 L-716,641 L-722,630 L-731,619 L-741,612 L-751,607 L-770,602 L-789,599 L-798,598 L-831,598 L-852,601 L-871,606 L-891,614 L-908,623 L-925,635 L-940,648 L-951,659 L-960,670 L-970,683 L-983,703 L-993,721 L-1004,743 L-1017,775 L-1029,811 L-1038,843 L-1047,882 L-1055,926 L-1062,976 L-1067,1026 L-1070,1068 L-1072,1114 L-1072,1226 L-1071,1251 L-1071,1269 L-1073,1269 L-1085,1209 L-1096,1146 L-1105,1086 L-1112,1028 L-1117,970 L-1119,932 L-1119,849 L-1116,806 L-1111,767 L-1104,732 L-1096,702 L-1086,674 L-1077,654 L-1064,629 L-1054,614 L-1048,606 L-1043,601 L-1034,591 L-1027,583 L-1013,569 L-1002,560 L-984,546 L-965,534 L-939,520 L-909,507 L-881,497 L-856,490 L-843,486 L-819,480 L-761,468 L-723,461 L-695,456 L-645,447 L-583,435 L-548,427 L-512,418 L-493,412 L-476,407 L-461,402 L-454,399 L-438,393 L-409,381 L-400,377 L-390,373 L-379,367 L-372,364 L-365,360 L-360,358 L-349,352 L-338,346 L-324,338 L-312,331 L-288,316 L-272,305 L-258,295 L-239,281 L-223,268 L-213,260 L-199,248 L-185,236 L-169,221 L-162,214 L-154,207 L-140,193 L-133,185 L-124,176 L-117,167 L-112,162 L-104,153 L-97,144 L-94,141 L-87,133 L-80,123 L-77,120 L-74,117 L-73,114 L-70,111 L-67,106 L-62,101 L-60,97 L-56,93 L-51,82 L-38,63 L-23,40 L-11,20 L-1,2 Z " fill="#F7D55E" transform="translate(1555,296)"/>
<path d="M0,0 L36,0 L54,3 L71,8 L91,17 L102,24 L112,32 L122,42 L129,52 L137,68 L141,80 L143,91 L143,119 L139,139 L133,157 L124,177 L113,196 L103,211 L89,230 L78,243 L69,254 L53,271 L44,280 L37,288 L27,297 L15,309 L7,316 L-5,327 L-16,336 L-26,345 L-37,354 L-53,367 L-70,380 L-88,394 L-107,408 L-125,421 L-143,434 L-159,445 L-184,462 L-202,474 L-225,489 L-250,505 L-274,520 L-300,536 L-332,555 L-354,568 L-380,583 L-408,599 L-437,615 L-461,628 L-487,642 L-504,651 L-508,650 L-495,640 L-478,628 L-463,617 L-444,603 L-423,587 L-407,575 L-393,564 L-377,551 L-363,540 L-350,529 L-339,520 L-325,508 L-311,496 L-300,486 L-292,479 L-279,467 L-264,453 L-226,415 L-219,407 L-208,395 L-199,384 L-191,375 L-190,373 L-188,373 L-186,369 L-180,361 L-178,356 L-166,340 L-151,317 L-139,296 L-130,277 L-123,258 L-118,238 L-116,220 L-117,202 L-121,186 L-126,174 L-133,163 L-142,153 L-151,145 L-164,137 L-163,133 L-150,119 L-141,108 L-129,95 L-120,84 L-108,71 L-101,63 L-89,49 L-79,38 L-70,27 L-60,16 L-41,9 L-24,4 Z " fill="#F8DD6F" transform="translate(1186,1013)"/>
<path d="M0,0 L30,0 L51,4 L71,12 L86,20 L97,28 L103,33 L103,35 L107,37 L109,41 L113,43 L117,49 L123,57 L130,68 L133,73 L133,76 L135,76 L138,84 L142,95 L144,103 L146,124 L146,138 L143,159 L138,177 L129,197 L127,197 L126,202 L124,202 L124,205 L122,205 L121,209 L119,209 L118,213 L116,213 L115,217 L112,222 L107,228 L96,237 L86,244 L67,254 L49,260 L34,263 L25,264 L4,264 L-16,261 L-32,256 L-48,249 L-63,240 L-76,229 L-87,218 L-98,203 L-108,184 L-115,163 L-118,145 L-118,117 L-115,99 L-108,78 L-98,59 L-92,51 L-87,47 L-80,39 L-73,32 L-60,22 L-45,13 L-25,5 L-8,1 Z " fill="#F9D962" transform="translate(1020,396)"/>
<path d="M0,0 L4,2 L18,21 L34,42 L47,60 L50,64 L69,64 L123,62 L131,62 L130,67 L117,85 L105,102 L93,119 L86,129 L89,139 L112,202 L112,206 L105,205 L38,184 L33,184 L21,194 L8,204 L-6,215 L-20,226 L-28,232 L-30,232 L-31,221 L-32,151 L-65,129 L-81,118 L-83,114 L-94,107 L-93,104 L-78,99 L-69,96 L-54,91 L-51,91 L-51,89 L-42,87 L-28,82 L-22,80 L-20,80 L-19,74 L-11,44 L-2,13 Z " fill="#D2AC45" transform="translate(1655,55)"/>
<path d="M0,0 L0,3 L-12,16 L-19,23 L-26,31 L-41,46 L-49,53 L-59,63 L-67,70 L-77,79 L-88,88 L-102,100 L-119,113 L-136,126 L-153,138 L-177,154 L-190,162 L-201,169 L-204,168 L-199,164 L-175,149 L-153,134 L-139,124 L-127,115 L-114,105 L-98,92 L-87,83 L-77,74 L-69,67 L-59,58 L-46,46 Z " fill="#F1EDD7" transform="translate(1436,464)"/>
<path d="M0,0 L11,3 L32,13 L46,23 L59,34 L66,42 L75,54 L84,70 L90,85 L95,104 L96,111 L96,135 L95,135 L92,100 L87,83 L84,76 L84,73 L82,73 L76,61 L66,47 L63,44 L60,39 L55,34 L50,29 L38,20 L24,12 L8,5 L0,2 Z M94,135 Z " fill="#EEE7CB" transform="translate(1071,399)"/>
<path d="M0,0 L1,0 L0,9 L-13,55 L-18,73 L-38,80 L-43,82 L-49,82 L-49,84 L-70,91 L-75,91 L-74,89 L-21,71 L-18,63 Z " fill="#EDE1BC" transform="translate(1653,62)"/>
<path d="M0,0 Z M-1,1 Z M-2,2 L-2,5 L-12,14 L-23,23 L-40,37 L-54,48 L-69,60 L-86,73 L-90,76 L-92,75 L-84,68 L-68,56 L-52,43 L-42,35 L-26,22 L-13,11 Z " fill="#F0ECDE" transform="translate(856,1523)"/>
<path d="M0,0 L1,0 L1,10 L-3,30 L-10,49 L-18,64 L-26,75 L-33,83 L-33,80 L-30,75 L-28,74 L-27,71 L-25,70 L-24,67 L-22,67 L-22,64 L-20,63 L-19,59 L-17,59 L-16,54 L-9,39 L-4,21 L-1,1 Z " fill="#EEE7CB" transform="translate(1166,534)"/>
<path d="M0,0 Z M-2,1 L0,1 L-2,5 L-15,12 L-26,18 L-37,24 L-51,31 L-67,39 L-77,42 L-74,39 L-47,26 L-25,14 L-5,3 Z " fill="#F1EDD7" transform="translate(1232,631)"/>
<path d="M0,0 L19,0 L40,3 L46,5 L42,6 L25,3 L-5,3 L-22,6 L-38,11 L-50,16 L-52,15 L-40,9 L-25,4 L-10,1 Z " fill="#EEE7CB" transform="translate(1025,394)"/>
<path d="M0,0 L0,3 L-47,50 L-55,57 L-72,73 L-74,72 L-60,58 L-52,51 L-44,43 L-36,36 Z " fill="#F0ECDE" transform="translate(960,1426)"/>
<path d="M0,0 L1,2 L-16,40 L-28,66 L-37,85 L-39,85 L-37,79 L-24,52 L-8,16 L-1,1 Z " fill="#EBE3CA" transform="translate(772,1255)"/>
<path d="M0,0 L0,3 L-4,11 L-7,12 L-8,16 L-12,21 L-15,24 L-18,29 L-20,29 L-21,33 L-23,33 L-25,38 L-27,38 L-29,42 L-37,53 L-41,54 L-38,49 L-25,33 L-15,20 L-1,1 Z M-42,54 Z M-43,55 Z M-44,56 Z M-45,57 Z M-46,58 Z " fill="#F1EDD7" transform="translate(1502,381)"/>
<path d="M0,0 L3,0 L3,2 L-35,10 L-63,17 L-76,21 L-79,20 L-72,17 L-28,6 Z " fill="#F1EDD7" transform="translate(771,767)"/>
<path d="M0,0 L1,2 L-11,25 L-21,45 L-30,62 L-32,62 L-30,56 L-9,15 L-2,2 Z M-33,62 Z M-34,63 Z " fill="#EBE3CA" transform="translate(704,1400)"/>
<path d="M0,0 L1,2 L-15,43 L-29,77 L-31,77 L-28,68 L-11,27 L-1,1 Z M-32,77 Z " fill="#EBE3CA" transform="translate(803,1178)"/>
<path d="M0,0 L1,2 L-14,30 L-28,56 L-30,56 L-28,50 L-13,22 L-2,2 Z M-31,56 Z M-32,57 Z " fill="#EBE3CA" transform="translate(672,1462)"/>
<path d="M0,0 L1,2 L-10,25 L-27,60 L-29,60 L-27,54 L-5,9 Z M-30,60 Z M-31,61 Z " fill="#EBE3CA" transform="translate(733,1340)"/>
<path d="M0,0 Z M-2,1 L0,1 L-1,4 L-21,12 L-46,22 L-57,26 L-65,29 L-67,28 L-58,24 L-20,9 Z " fill="#F1EDD7" transform="translate(1155,671)"/>
<path d="M0,0 L0,3 L-18,17 L-37,31 L-55,44 L-58,44 L-47,35 L-33,25 L-12,9 Z " fill="#F0ECDE" transform="translate(763,1598)"/>
<path d="M0,0 L1,2 L-25,13 L-42,21 L-61,32 L-63,31 L-54,25 L-27,11 L-3,1 Z " fill="#F1EDD7" transform="translate(648,801)"/>
<path d="M0,0 L1,0 L1,38 L0,52 L-3,70 L-5,81 L-7,87 L-8,83 L-2,47 L-1,37 Z " fill="#EBE3CA" transform="translate(848,970)"/>
<path d="M0,0 L0,3 L-8,14 L-10,14 L-12,18 L-24,32 L-34,43 L-41,51 L-44,54 L-46,53 L-37,44 L-30,36 L-18,22 L-7,9 Z M-47,54 Z M-48,55 Z M-49,56 Z " fill="#F0ECDE" transform="translate(1006,1372)"/>
<path d="M0,0 L4,1 L-2,3 L-42,10 L-63,13 L-61,11 Z " fill="#F1EDD7" transform="translate(885,746)"/>
<path d="M0,0 L1,2 L-1,5 L-3,5 L-5,9 L-7,12 L-9,12 L-11,16 L-18,24 L-23,29 L-25,29 L-23,25 L-11,12 L-4,4 Z M-26,29 Z M-27,30 Z M-28,31 Z M-29,32 Z M-30,33 Z M-31,34 Z M-32,35 Z M-33,36 Z M-34,37 Z M-35,38 Z M-36,39 Z M-37,40 Z " fill="#F1EDD7" transform="translate(1461,435)"/>
<path d="M0,0 L1,2 L-13,45 L-21,67 L-23,68 L-20,58 L-3,8 Z " fill="#EBE3CA" transform="translate(826,1110)"/>
<path d="M0,0 Z M-3,1 L0,1 L0,3 L-21,10 L-43,16 L-52,18 L-51,16 L-15,5 Z " fill="#F1EDD7" transform="translate(1088,698)"/>
<path d="M0,0 Z M-3,1 L0,1 L0,3 L-33,11 L-52,15 L-55,14 L-40,10 Z " fill="#F1EDD7" transform="translate(1036,714)"/>
<path d="M0,0 L2,0 L1,3 L-14,8 L-15,10 L-10,12 L-3,17 L-2,20 L-7,18 L-19,10 L-18,6 Z " fill="#EDE1BC" transform="translate(1576,152)"/>
<path d="M0,0 L0,3 L-12,10 L-28,23 L-37,32 L-42,38 L-42,35 L-31,23 L-24,16 L-9,5 Z " fill="#EEE7CB" transform="translate(972,409)"/>
<path d="M0,0 Z M-1,1 L-1,4 L-15,13 L-32,26 L-41,34 L-43,33 L-35,25 L-18,12 Z " fill="#F1EDD7" transform="translate(585,831)"/>
<path d="M0,0 L1,2 L-2,17 L-7,35 L-12,52 L-14,53 L-10,37 L-1,1 Z " fill="#EBE3CA" transform="translate(840,1057)"/>
<path d="M0,0 Z M-1,1 L-1,4 L-19,17 L-26,22 L-25,24 L-31,27 L-34,27 L-32,23 L-13,10 Z " fill="#F0ECDE" transform="translate(705,1641)"/>
<path d="M0,0 Z M-1,1 Z M-2,2 L-2,5 L-20,23 L-29,34 L-34,40 L-34,37 L-25,26 L-14,14 Z " fill="#F1EDD7" transform="translate(543,862)"/>
<path d="M0,0 L4,1 L-2,3 L-29,8 L-39,10 L-44,10 L-42,8 Z " fill="#F1EDD7" transform="translate(818,758)"/>
<path d="M0,0 L3,0 L3,2 L-40,10 L-45,10 L-43,8 Z " fill="#F1EDD7" transform="translate(934,737)"/>
<path d="M0,0 L3,0 L3,2 L-36,10 L-41,10 L-39,8 Z " fill="#F1EDD7" transform="translate(978,728)"/>
<path d="M0,0 Z M-3,1 L0,1 L0,3 L-21,9 L-40,16 L-43,15 L-31,10 Z " fill="#F1EDD7" transform="translate(692,786)"/>
<path d="M0,0 Z M-1,1 Z M-2,2 Z M-3,3 Z M-4,4 L-4,7 L-17,19 L-28,28 L-32,32 L-34,31 L-26,23 L-15,14 Z " fill="#F0ECDE" transform="translate(889,1494)"/>
<path d="M0,0 L1,2 L-15,31 L-17,31 L-15,25 L-2,2 Z " fill="#EBE3CA" transform="translate(642,1518)"/>
</svg>
